<?xml version="1.0" encoding="utf-8"?>
<!-- Generator: Adobe Illustrator 19.1.0, SVG Export Plug-In . SVG Version: 6.00 Build 0)  -->
<svg version="1.1" id="Layer_1" xmlns="http://www.w3.org/2000/svg" xmlns:xlink="http://www.w3.org/1999/xlink" x="0px" y="0px"
	 viewBox="-668 452.5 581.3 177.5" style="enable-background:new -668 452.5 581.3 177.5;" xml:space="preserve">
<path d="M-635,462l-23,27v7.7c0,9.7,9,18.3,17.1,18.3c9.8,0,17.9-8.2,17.9-18c0,9.8,7.9,18,17.6,18s17.4-8.2,17.4-18
	c0,9.8,8.4,18,18.1,18c9.8,0,17.9-8.2,17.9-18c0,9.8,7.9,18,17.7,18c9.8,0,17.3-8.2,17.3-18c0,9.8,8.4,18,18.2,18
	c9.8,0,17.8-8.2,17.8-18v-8l-25-27C-549.6,461.9-635,462-635,462z"/>
<path d="M-458.6,528.7h24.1v71.6h-24.1L-458.6,528.7L-458.6,528.7z M-446.4,522.9c-4.1,0-7.2-1-9.4-3.1c-2.2-2-3.3-4.8-3.3-8.1
	c0-3.2,1.1-5.9,3.3-8.1c2.2-2.2,5.3-3.3,9.4-3.3c4.1,0,7.2,1.1,9.4,3.3c2.2,2.2,3.3,4.9,3.3,8.1c0,3.4-1.1,6.1-3.3,8.1
	C-439.2,521.8-442.3,522.9-446.4,522.9 M-399.3,601.7c-7,0-12.2-1.9-15.8-5.6c-3.5-3.7-5.3-8.9-5.3-15.6v-33.9h-9.6v-17.9h9.6v-17.5
	h24.1v17.5h15.7v17.9h-15.7V577c0,2.2,0.5,3.8,1.4,4.7s2.4,1.4,4.3,1.4c2.6,0,5.5-1.2,8.6-3.5l5.5,15.9c-2.8,1.9-6,3.5-9.6,4.6
	C-389.7,601.1-394.1,601.7-399.3,601.7 M-340.9,601.7c-11.1,0-19.8-3.1-26.1-9.5c-6.4-6.3-9.5-15.5-9.5-27.5c0-8.7,1.8-16,5.4-22
	c3.7-6.1,8.3-10.2,13.8-12.4c5.8-2.2,11.2-3.3,16.1-3.3c6.2,0,11.4,1.2,15.6,3.7c4.2,2.5,7.2,5.2,9.2,8.1c2,2.9,3.4,5.2,4.3,6.8
	l-16.7,10.8c-1.5-3.2-3.2-5.7-5.1-7.6c-1.8-1.8-4.1-2.8-6.7-2.8c-3.7,0-6.6,1.5-8.7,4.4c-2.1,2.9-3.2,7.3-3.2,13.2
	c0,6.4,1.3,11.1,3.8,14.1c2.5,3,6.1,4.5,10.8,4.5c3.7,0,6.8-0.7,9.2-2c2.5-1.4,4.8-3.1,7-5.2l7.7,18c-2.3,1.9-5.8,3.9-10.3,5.7
	C-328.8,600.7-334.4,601.7-340.9,601.7 M-306.4,600.2v-97.1h24.3v29.5c2-1.5,4.5-2.7,7.4-3.9c2.9-1.1,6.4-1.7,10.5-1.7
	c8.5,0,14.9,2.4,19.1,7.3c4.2,4.8,6.3,11.7,6.3,20.5v45.4h-24.3v-42.5c0-4.1-0.8-7.1-2.3-8.9c-1.6-1.9-3.6-2.8-6.1-2.8
	c-2.1,0-4.1,0.5-6,1.5c-1.8,1-3.4,2-4.7,3.1v49.7L-306.4,600.2L-306.4,600.2z M-219.5,601.7c-3.9,0-6.9-1.1-9.2-3.3
	c-2.2-2.2-3.3-5.1-3.3-8.6s1.1-6.4,3.3-8.7c2.2-2.3,5.3-3.5,9.2-3.5c3.7,0,6.6,1.2,8.9,3.5c2.2,2.3,3.3,5.2,3.3,8.7
	s-1.1,6.3-3.3,8.6C-212.7,600.6-215.7,601.7-219.5,601.7 M-199.7,528.7h24.1v71.6h-24.1L-199.7,528.7L-199.7,528.7z M-187.5,522.9
	c-4.1,0-7.2-1-9.4-3.1c-2.2-2-3.3-4.8-3.3-8.1c0-3.2,1.1-5.9,3.3-8.1c2.2-2.2,5.3-3.3,9.4-3.3c4.1,0,7.2,1.1,9.4,3.3
	c2.2,2.2,3.3,4.9,3.3,8.1c0,3.4-1.1,6.1-3.3,8.1C-180.3,521.8-183.4,522.9-187.5,522.9 M-132.4,601.7c-5.6,0-10.6-0.9-15-2.8
	c-4.4-1.9-8.1-4.5-11.1-7.9c-3.1-3.3-5.4-7.3-7-11.9c-1.6-4.6-2.4-9.6-2.4-15.1c0-8,1.7-15.1,5.2-21.1c3.6-5.9,8.1-10,13.5-12.4
	c5.4-2.3,11-3.5,16.8-3.5c8.3,0,15.2,1.9,20.7,5.8c5.5,3.9,9.4,8.7,11.6,14.5s3.3,11.3,3.3,16.6c0,5.4-0.8,10.4-2.4,15.1
	c-1.6,4.6-3.9,8.6-7,11.9c-3.1,3.3-6.8,6-11.2,7.9C-121.7,600.7-126.8,601.7-132.4,601.7 M-132.4,583.1c4.1,0,7-1.7,8.9-5.2
	c1.8-3.4,2.8-8.1,2.8-13.9c0-5.5-1-9.9-2.9-13.2c-1.9-3.3-4.8-4.9-8.7-4.9c-3.8,0-6.6,1.6-8.6,4.9c-1.9,3.3-2.9,7.7-2.9,13.2
	c0,5.8,0.9,10.4,2.8,13.9C-139.1,581.3-136.3,583.1-132.4,583.1 M-623,510.5c-0.9,1.7-2.2,3.1-3.6,4.4c-3.7,3.7-8.8,5.9-14.3,5.9
	c-1.4,0-5.1-0.8-5.1-0.8v100h154V519.4c-2.3,0.9-4.2,1.4-6.8,1.4c-5.6,0-10.7-2.3-14.3-5.9c-1.3-1.3-2.5-2.8-3.4-4.5
	c-0.9,1.7-2.1,3.2-3.4,4.5c-3.7,3.7-8.7,5.9-14.3,5.9c-5.6,0-10.7-2.3-14.3-5.9c-1.3-1.3-2.5-2.8-3.4-4.5c-0.9,1.7-2.1,3.2-3.4,4.5
	c-3.7,3.7-8.8,5.9-14.3,5.9c-5.6,0-10.7-2.3-14.3-5.9c-1.3-1.3-2.5-2.8-3.4-4.5c-0.9,1.7-2.1,3.2-3.4,4.5c-3.7,3.7-8.7,5.9-14.3,5.9
	c-5.6,0-10.7-2.3-14.3-5.9C-621,513.6-622.1,512.2-623,510.5L-623,510.5z M-600.8,529c6.7,0,11.5,4.4,13.2,10.9h37.1
	c1.7-6.6,6.4-10.9,13.2-10.9c10.7,0,22.4,11,26.1,24.3l8.8,32c3.7,13.4-2.1,24.3-12.8,24.3c-9.4,0-19.5-8.4-24.4-19.6h-58.8
	c-4.8,11.1-15,19.6-24.4,19.6c-10.7,0-16.4-11-12.8-24.3l8.8-32C-623.2,539.9-611.5,529-600.8,529z"/>
<path d="M-582.3,557.3l-12.5,13.5h12.4v13.9h24.6v-13.9h13.2l-12.5-13.5l-12.5-13.5L-582.3,557.3z"/>
</svg>
